<?xml version="1.0" encoding="UTF-8" standalone="no"?>
<!-- Uploaded to: SVG Repo, www.svgrepo.com, Generator: SVG Repo Mixer Tools -->

<svg
   aria-label="PDF"
   role="img"
   viewBox="0 0 325.14011 316"
   version="1.1"
   id="svg1"
   sodipodi:docname="pdf-outline-logo.svg"
   width="325.14011"
   height="316"
   inkscape:version="1.4.4 (dcaf3e7d9e, 2026-05-05)"
   xmlns:inkscape="http://www.inkscape.org/namespaces/inkscape"
   xmlns:sodipodi="http://sodipodi.sourceforge.net/DTD/sodipodi-0.dtd"
   xmlns="http://www.w3.org/2000/svg"
   xmlns:svg="http://www.w3.org/2000/svg">
  <defs
     id="defs1" />
  <sodipodi:namedview
     id="namedview1"
     pagecolor="#ffffff"
     bordercolor="#000000"
     borderopacity="0.25"
     inkscape:showpageshadow="2"
     inkscape:pageopacity="0.0"
     inkscape:pagecheckerboard="0"
     inkscape:deskcolor="#d1d1d1"
     inkscape:zoom="1.6621094"
     inkscape:cx="162.44418"
     inkscape:cy="157.93184"
     inkscape:window-width="1852"
     inkscape:window-height="1040"
     inkscape:window-x="50"
     inkscape:window-y="0"
     inkscape:window-maximized="1"
     inkscape:current-layer="svg1" />
  <path
     fill="#ffffff"
     d="m 319.36234,204 c -9,-10 -29,-15 -56,-15 -16,0 -33,2 -53,5 a 252,252 0 0 1 -52,-69 c 10,-30 17,-59 17,-81 0,-17 -6,-44 -30,-44 -7,0 -13,4 -17,10 -10,18 -6,58 13,100 A 898,898 0 0 1 91.362341,227 c -53,22 -88.0000003,46 -91.00000028,65 -2.00000002,9 3.99999998,24 25.00000028,24 31,0 65,-45 90.999999,-91 a 626,626 0 0 1 92,-24 c 38,33 71,38 87,38 32,0 35,-23 24,-35 z m -186,-191 c 8,-12 26,-8 26,16 0,16 -5,42 -15,72 -18,-42 -18,-75 -11,-88 z M 6.3623407,293 c 3,-16 33.0000003,-38 80.0000003,-57 -26,44 -52,72 -68,72 C 8.3623407,308 5.3623407,299 6.3623407,293 Z M 203.36234,195 a 574,574 0 0 0 -83,22 453,453 0 0 0 36,-84 327,327 0 0 0 47,62 z m 13,4 c 32,-5 59,-4 71,-2 29,6 19,41 -13,33 -23,-5 -42,-18 -58,-31 z"
     id="path1"
     style="fill:#333333" />
</svg>
